<?xml version="1.0" standalone="no"?>
<!DOCTYPE svg PUBLIC "-//W3C//DTD SVG 20010904//EN"
 "http://www.w3.org/TR/2001/REC-SVG-20010904/DTD/svg10.dtd">
<svg version="1.0" xmlns="http://www.w3.org/2000/svg"
 width="1023.000000pt" height="1023.000000pt" viewBox="0 0 1023.000000 1023.000000"
 preserveAspectRatio="xMidYMid meet">
<metadata>
Created by potrace 1.16, written by Peter Selinger 2001-2019
</metadata>
<g transform="translate(0.000000,1023.000000) scale(0.100000,-0.100000)"
fill="#ffffff" stroke="none">
<path d="M5100 10020 c-262 -26 -628 -143 -935 -300 -931 -475 -1967 -1439
-2652 -2470 -565 -849 -864 -1573 -970 -2345 -26 -197 -24 -600 6 -845 97
-802 313 -1391 697 -1903 247 -328 523 -580 959 -872 172 -115 541 -329 642
-371 24 -10 30 -18 26 -34 -5 -17 0 -20 28 -20 50 -1 109 -31 152 -79 27 -30
42 -40 50 -33 16 13 81 -10 256 -90 241 -110 782 -385 921 -467 74 -45 141
-81 148 -81 20 0 14 22 -25 89 -82 138 -301 338 -543 496 -179 117 -308 186
-652 351 -331 158 -684 338 -818 417 -465 272 -859 651 -1102 1059 -342 576
-521 1263 -522 1998 0 326 38 582 139 934 410 1428 1715 3071 3095 3898 658
394 1164 509 1642 373 828 -236 1971 -1163 2740 -2223 808 -1114 1187 -2253
1108 -3332 -35 -486 -123 -859 -281 -1203 -152 -331 -325 -574 -605 -848 -154
-150 -289 -259 -470 -379 l-134 -88 -91 40 c-112 49 -150 55 -224 34 -71 -21
-119 -51 -167 -104 -50 -55 -74 -105 -102 -210 l-23 -87 -209 -96 c-115 -53
-375 -170 -579 -259 -695 -306 -763 -344 -981 -552 -132 -127 -304 -333 -304
-364 0 -18 65 15 305 155 203 118 351 193 640 321 127 56 289 131 360 165 72
35 141 66 155 70 63 18 507 239 547 272 14 13 37 23 49 23 26 0 84 21 158 56
28 13 56 24 63 24 9 0 12 27 12 109 0 117 9 167 40 218 40 65 104 83 170 48
38 -19 57 -59 66 -136 12 -104 11 -102 48 -83 17 9 46 31 62 48 17 18 37 35
45 39 20 10 54 33 131 88 35 25 114 80 175 122 228 159 485 393 659 600 99
118 249 337 330 484 208 375 356 898 386 1358 7 101 9 320 6 540 -5 394 -8
426 -77 760 -175 853 -618 1746 -1275 2570 -744 933 -1650 1663 -2458 1979
-293 115 -569 161 -817 136z"/>
<path d="M4695 7673 c-346 -18 -854 -131 -1190 -265 -137 -54 -427 -201 -560
-283 -284 -174 -612 -461 -816 -715 -402 -501 -647 -1107 -724 -1795 -17 -153
-20 -500 -5 -730 36 -555 241 -1120 576 -1585 234 -326 762 -753 1714 -1389
283 -189 551 -372 595 -406 156 -122 445 -438 445 -486 0 -18 9 -19 155 -19
145 0 155 1 155 19 0 57 227 309 400 443 222 171 375 264 1065 643 1044 575
1387 798 1691 1100 169 168 274 310 363 490 116 234 149 336 211 645 51 253
64 406 57 700 -6 259 -22 381 -82 625 -113 460 -295 866 -580 1295 -423 635
-1039 1155 -1707 1439 -274 116 -597 207 -874 246 -199 28 -629 42 -889 28z
m779 -463 c234 -23 579 -105 809 -194 614 -237 1123 -611 1541 -1130 438 -545
712 -1195 756 -1797 22 -289 -33 -714 -131 -1014 -50 -153 -150 -353 -236
-474 -78 -108 -258 -294 -383 -394 -195 -157 -797 -534 -1153 -721 -76 -40
-91 -44 -110 -35 -46 25 -188 141 -184 152 2 7 44 27 93 45 380 140 685 319
977 576 54 47 103 86 108 86 12 0 -12 -48 -66 -130 -70 -106 -73 -116 -43
-147 25 -24 29 -25 58 -13 50 21 354 335 503 520 155 192 303 447 372 640 14
41 43 135 63 210 l37 135 0 350 c0 388 0 392 -82 710 -62 245 -133 426 -133
340 0 -17 11 -124 25 -240 74 -626 54 -985 -74 -1373 -50 -154 -175 -417 -191
-407 -6 4 -10 149 -10 381 0 533 -20 763 -96 1109 -116 523 -273 890 -553
1289 -115 165 -238 287 -215 214 3 -13 35 -94 69 -180 56 -141 61 -158 44
-158 -38 0 -275 133 -624 350 -180 112 -253 147 -323 156 -52 7 -52 6 -97 -38
-43 -44 -45 -48 -45 -105 0 -83 18 -136 131 -390 110 -248 119 -273 96 -273
-23 0 -201 64 -338 121 -177 75 -381 181 -576 300 -239 146 -274 163 -319 154
-21 -3 -50 -20 -67 -36 -29 -29 -30 -32 -24 -102 7 -88 46 -201 151 -431 43
-92 75 -170 72 -173 -7 -8 -169 26 -273 57 -374 111 -696 303 -973 580 -146
146 -264 299 -352 458 -112 202 -144 232 -223 211 -55 -15 -81 -47 -95 -115
-29 -139 -99 -295 -185 -409 -60 -79 -224 -245 -365 -369 -209 -183 -327 -295
-401 -382 -187 -217 -268 -390 -325 -692 -23 -122 -27 -169 -31 -437 -3 -174
-1 -365 6 -455 21 -301 100 -685 219 -1060 33 -102 62 -198 66 -215 l8 -30
-33 30 c-52 49 -187 222 -262 335 -80 122 -220 402 -272 543 -49 134 -101 317
-130 461 -52 250 -57 846 -10 1111 96 540 296 991 609 1375 76 92 329 345 416
415 133 107 397 278 542 351 216 109 611 241 878 293 314 62 397 69 835 70
226 1 459 -4 519 -9z m-1829 -1384 c102 -137 264 -309 395 -418 280 -235 667
-434 1018 -522 143 -37 389 -76 472 -76 69 0 74 2 106 34 24 24 34 43 34 65 0
32 -47 142 -144 340 -31 63 -56 120 -56 127 0 18 16 12 244 -101 393 -193 699
-297 911 -311 l90 -6 39 41 c50 52 50 71 -2 191 -23 52 -42 98 -42 103 0 16
56 4 239 -54 106 -33 199 -58 207 -55 16 6 18 47 5 94 -13 45 -2 43 145 -27
145 -70 136 -57 203 -281 100 -331 211 -810 241 -1042 26 -207 42 -560 31
-724 -7 -118 -11 -139 -40 -200 -76 -162 -273 -418 -457 -594 -300 -286 -762
-519 -1249 -629 -305 -69 -544 -95 -900 -95 -307 -1 -444 9 -711 50 -527 80
-955 267 -1322 577 -291 246 -631 702 -749 1004 -26 68 -27 70 -31 398 -5 376
6 554 43 715 42 182 71 261 132 358 87 137 175 233 423 456 368 333 493 468
589 639 18 31 36 57 41 57 5 0 48 -52 95 -114z m2968 -188 c116 -67 240 -149
234 -154 -9 -9 -231 37 -255 52 -34 22 -81 144 -56 144 3 0 38 -19 77 -42z
m-3819 -3373 c210 -209 442 -377 699 -506 42 -22 77 -42 77 -45 0 -3 -21 -26
-46 -50 -27 -27 -58 -71 -75 -109 -16 -36 -40 -72 -53 -80 -23 -15 -27 -15
-65 4 -46 24 -359 257 -471 350 -87 73 -94 83 -161 213 -71 141 -200 479 -199
522 1 6 37 -29 82 -79 45 -49 140 -149 212 -220z m889 -686 c31 -17 37 -28 37
-76 0 -32 -5 -46 -22 -57 -58 -41 -130 -1 -130 70 0 62 58 93 115 63z m2531
-51 c25 -41 28 -66 10 -103 -19 -41 -58 -65 -104 -65 -67 0 -125 106 -84 152
26 28 51 37 111 37 44 1 55 -3 67 -21z m-2002 -4 c315 -66 808 -93 1338 -71
l195 8 -46 -43 c-54 -51 -233 -147 -340 -181 -316 -103 -654 -61 -1010 124
-99 52 -230 144 -237 167 -5 16 11 15 100 -4z m-276 -186 c18 -36 12 -70 -18
-98 -58 -54 -158 13 -132 88 5 15 24 34 42 44 44 21 86 8 108 -34z m2009 8
c35 -15 65 -59 65 -96 0 -62 -70 -118 -131 -105 -73 16 -103 115 -54 174 22
26 35 32 78 40 4 0 23 -5 42 -13z m382 -33 c9 -22 -22 -45 -129 -99 -97 -49
-112 -52 -105 -26 3 9 8 29 11 44 4 19 15 30 34 35 15 3 54 19 87 35 69 32 93
35 102 11z m-2673 -9 c17 -17 22 -74 7 -74 -16 0 -71 51 -71 65 0 26 42 32 64
9z m500 -145 c29 -34 31 -43 15 -88 -12 -35 -35 -51 -74 -51 -40 0 -62 16 -75
55 -14 43 -7 68 27 95 38 30 76 26 107 -11z m246 -33 c228 -100 489 -144 743
-124 70 6 131 8 134 4 4 -3 -3 -24 -15 -45 -12 -21 -28 -65 -35 -97 -16 -69
-43 -94 -111 -101 -39 -5 -52 -1 -89 23 -37 25 -53 29 -132 32 l-90 4 -64 -47
-64 -47 -66 35 -66 36 -7 72 c-9 84 -38 150 -78 179 -15 11 -58 28 -96 37 -62
17 -69 21 -72 46 -4 36 11 35 108 -7z m1304 20 c71 -30 89 -110 37 -168 -25
-28 -36 -33 -76 -33 -39 0 -51 5 -71 28 -29 33 -39 68 -30 103 8 31 49 71 79
77 12 2 23 5 25 6 1 0 18 -5 36 -13z m-1310 -177 c20 -16 26 -29 26 -60 0 -41
-14 -78 -34 -91 -23 -15 -65 -7 -95 18 -45 37 -43 82 4 123 42 36 63 39 99 10z
m1062 -19 c6 0 23 -11 38 -25 20 -19 26 -33 26 -68 0 -47 -18 -72 -74 -100
-76 -40 -159 67 -116 148 16 29 68 57 95 50 11 -3 25 -5 31 -5z m-480 -220
c48 -30 78 -98 69 -157 -17 -117 -170 -171 -261 -91 -81 71 -66 205 28 251 47
23 123 22 164 -3z m-504 -27 c24 -9 71 -34 105 -56 61 -38 64 -41 84 -108 12
-39 19 -73 16 -76 -11 -10 -269 236 -261 249 7 11 7 11 56 -9z m842 -22 c3 -5
-10 -29 -30 -53 -48 -58 -284 -298 -293 -298 -4 0 -15 6 -25 13 -16 12 -13 16
35 48 64 41 94 83 115 158 21 79 24 83 85 113 54 28 103 36 113 19z m-506
-324 c4 -19 -20 -27 -39 -13 -8 6 -28 29 -44 50 l-30 39 55 -31 c30 -17 56
-38 58 -45z"/>
<path d="M3495 5485 c-149 -33 -292 -104 -365 -181 -43 -46 -51 -59 -48 -87 3
-28 7 -32 34 -35 18 -2 111 23 220 58 104 34 226 70 272 82 104 26 146 53 150
95 7 75 -102 103 -263 68z"/>
<path d="M3405 4835 c-312 -78 -566 -329 -680 -672 -27 -82 -27 -83 -23 -320
4 -227 14 -303 38 -303 11 0 16 27 35 175 34 266 99 432 223 565 75 80 132
122 132 97 0 -8 -6 -32 -14 -54 -43 -121 -67 -330 -67 -573 0 -555 135 -812
496 -941 84 -30 312 -39 404 -15 197 50 357 241 406 484 34 168 47 636 24 882
-30 336 -213 559 -534 656 -76 22 -113 27 -235 30 -105 3 -162 -1 -205 -11z
m567 -487 c65 -30 88 -64 88 -128 0 -52 -24 -95 -70 -123 -67 -41 -322 -33
-398 13 -44 27 -65 73 -59 127 8 70 49 103 161 129 93 21 209 13 278 -18z
m-159 -721 c17 -19 30 -23 59 -19 41 5 78 -23 78 -59 0 -19 4 -20 53 -14 70 9
85 -6 70 -70 -9 -41 -9 -43 8 -35 24 14 63 12 77 -2 18 -18 15 -95 -4 -106
-20 -11 -10 -32 15 -32 44 0 55 -59 19 -105 -12 -15 -45 -42 -73 -60 -28 -19
-76 -62 -106 -96 -91 -106 -195 -139 -337 -108 -67 14 -153 67 -171 104 -24
51 -45 72 -123 124 -85 57 -94 66 -103 103 -8 33 23 68 62 68 21 0 24 3 15 12
-17 17 -15 74 4 92 8 9 31 16 50 16 32 0 34 2 34 34 0 19 7 42 16 50 20 20 63
21 91 1 20 -14 22 -13 28 25 8 48 33 65 83 56 29 -4 38 -1 54 19 26 33 71 33
101 2z"/>
<path d="M6560 4836 c-184 -39 -355 -132 -443 -241 -73 -91 -135 -223 -152
-325 -34 -204 -43 -473 -25 -725 24 -320 83 -490 216 -622 106 -105 218 -146
394 -145 240 0 463 109 580 282 48 71 72 130 104 257 42 166 49 247 43 481 -5
237 -24 391 -64 515 -13 44 -22 81 -19 84 8 9 143 -125 193 -192 55 -72 105
-176 128 -265 14 -53 55 -350 55 -397 0 -7 4 -13 10 -13 29 0 76 285 66 405
-18 232 -121 460 -291 643 -119 129 -230 200 -377 243 -94 27 -320 35 -418 15z
m37 -467 c43 -6 96 -20 118 -32 91 -50 110 -141 42 -204 -47 -42 -90 -54 -234
-60 -112 -5 -125 -4 -168 17 -79 38 -113 119 -78 187 15 28 36 46 82 71 70 36
107 39 238 21z m20 -739 c14 -11 41 -20 60 -20 57 0 73 -14 73 -67 l0 -46 23
21 c48 45 123 13 111 -48 -6 -29 -6 -30 33 -30 59 0 77 -18 70 -69 -5 -38 -3
-43 23 -56 59 -31 48 -81 -32 -143 -30 -23 -58 -42 -61 -42 -12 0 -65 -56 -95
-101 -59 -88 -151 -126 -281 -117 -91 7 -138 34 -252 142 -53 50 -113 105
-133 122 -27 24 -36 39 -36 63 0 27 5 34 36 47 l36 15 -21 23 c-50 53 -7 131
60 107 28 -9 30 -9 24 7 -18 48 -17 70 6 86 27 18 80 21 96 5 8 -8 13 -2 18
20 9 41 46 65 85 58 23 -5 36 -1 57 18 34 30 67 31 100 5z"/>
<path d="M4710 2557 c-77 -27 -108 -143 -54 -207 15 -17 39 -37 54 -45 44 -23
197 -54 330 -67 197 -19 446 17 506 73 56 53 56 149 -1 206 -39 39 -75 42
-206 17 -100 -19 -317 -15 -444 9 -132 25 -149 26 -185 14z"/>
</g>
</svg>
